# xmcd
#
# Track frame offsets:
#	150
#	16316
#	35762
#	51379
#	64137
#	78468
#	93273
#	112308
#	127948
#	146374
#	163651
#	181081
#	199464
#
# Disc length: 2882 seconds
#
# Revision: 3
# Processed by: cddbd v1.5.2PL0 Copyright (c) Steve Scherf et al.
# Submitted via: EZCDAudioConverter 3.1.0.1
#
DISCID=b70b400d
DTITLE=Lauku muzikanti - Laika jautājums
DYEAR=2007
DGENRE=Country
TTITLE0=Pāri okeānam
TTITLE1=Nepareiza sirds
TTITLE2=Laimes meklētāji
TTITLE3=Kā bērns
TTITLE4=Kamēr zvaigzne spīd
TTITLE5=Nāc tuvāk
TTITLE6=1000
TTITLE7=Es tevi atradu sniegā
TTITLE8=Tev jābūt tur
TTITLE9=Septiņdesmit
TTITLE10=Tieši šodien
TTITLE11=Kaut kur bez tevis
TTITLE12=Laika jautājums
EXTD=
EXTT0=
EXTT1=
EXTT2=
EXTT3=
EXTT4=
EXTT5=
EXTT6=
EXTT7=
EXTT8=
EXTT9=
EXTT10=
EXTT11=
EXTT12=
PLAYORDER=
